<?xml version="1.0" encoding="UTF-8" standalone="no"?>
<!-- Created with Inkscape (http://www.inkscape.org/) -->

<svg
   width="400mm"
   height="400mm"
   viewBox="0 0 1511.811 1511.811"
   version="1.1"
   id="svg1"
   xml:space="preserve"
   inkscape:version="1.3.2 (091e20e, 2023-11-25, custom)"
   sodipodi:docname="守.svg"
   xmlns:inkscape="http://www.inkscape.org/namespaces/inkscape"
   xmlns:sodipodi="http://sodipodi.sourceforge.net/DTD/sodipodi-0.dtd"
   xmlns="http://www.w3.org/2000/svg"
   xmlns:svg="http://www.w3.org/2000/svg"><sodipodi:namedview
     id="namedview1"
     pagecolor="#ffffff"
     bordercolor="#000000"
     borderopacity="0.25"
     inkscape:showpageshadow="2"
     inkscape:pageopacity="0.0"
     inkscape:pagecheckerboard="0"
     inkscape:deskcolor="#d1d1d1"
     inkscape:document-units="px"
     inkscape:zoom="0.29131945"
     inkscape:cx="449.67819"
     inkscape:cy="550.9416"
     inkscape:window-width="1920"
     inkscape:window-height="1017"
     inkscape:window-x="-8"
     inkscape:window-y="-8"
     inkscape:window-maximized="1"
     inkscape:current-layer="layer1" /><defs
     id="defs1" /><g
     inkscape:label="图层 1"
     inkscape:groupmode="layer"
     id="layer1"><path
       style="fill:#000000;stroke-width:17.1953"
       d="m 709.89769,1438.8945 c -25.39624,-30.6006 -9.40816,-60.9368 32.11529,-60.9368 36.71707,0 87.62686,-52.1506 87.62686,-89.7626 0,-15.584 -30.69638,-39.0948 -73.08015,-55.9733 -83.25815,-33.1554 -136.77573,-75.4052 -123.24586,-97.297 12.49132,-20.2114 122.34134,-18.8919 161.2602,1.9368 45.01361,24.0906 72.89258,-16.849 66.26718,-97.3118 -5.28136,-64.14038 -6.90879,-65.59522 -69.31654,-61.96444 -35.14946,2.04504 -100.92161,22.19845 -146.16032,44.78544 -106.54418,53.1959 -179.8413,66.4205 -244.05826,44.0342 C 282.0475,1024.8315 323.17334,964.85165 628.58829,734.92789 816.33298,593.58912 915.61648,502.6471 915.61648,472.01499 c 0,-97.49892 -371.68255,-53.43514 -492.31726,58.36522 -44.13331,40.90138 -44.96773,45.55445 -33.50457,186.83174 11.10665,136.88316 9.87587,144.88573 -22.28363,144.88573 -18.72185,0 -49.66387,-19.86295 -68.76002,-44.13984 -30.75725,-39.10142 -33.56009,-60.58184 -24.55513,-188.18342 6.85678,-97.16111 3.22047,-160.80984 -11.17219,-195.55696 -29.46011,-71.12297 -11.18749,-92.32469 49.5347,-57.47497 47.39829,27.20288 53.58775,26.5945 139.68195,-13.72988 76.49034,-35.82617 115.01031,-42.09767 255.23691,-41.55572 125.0807,0.48348 179.75322,8.21555 225.33459,31.86797 64.7827,33.61609 154.75807,111.13314 154.75807,133.32961 0,7.48834 -42.5585,55.49907 -94.57442,106.69051 -88.32945,86.92944 -115.14579,131.19003 -79.48441,131.19003 8.29941,0 23.9034,-10.61967 34.67543,-23.59924 11.04397,-13.30716 72.4978,-28.81303 140.9105,-35.5543 97.7294,-9.62999 129.6484,-6.50114 164.1245,16.08835 71.2679,46.69648 47.8487,93.39607 -71.0773,141.7332 -232.25778,94.40065 -206.2519,55.00849 -207.03088,313.59758 -0.6874,228.0101 -0.6874,228.0101 -56.1561,277.572 -62.35648,55.7154 -172.45358,68.6295 -209.05953,24.5219 z M 698.105,878.77768 c 49.83205,-18.64452 104.86427,-44.32678 122.29394,-57.07169 34.13294,-24.95856 23.20543,-62.78029 -18.13857,-62.78029 -36.43351,0 -178.68612,77.50652 -239.14817,130.30022 -51.58595,45.04333 -51.58595,45.04333 -3.5984,34.24709 26.39315,-5.93784 88.75918,-26.05081 138.5912,-44.69533 z M 777.04614,177.6169 c -23.08937,-17.92319 -65.19429,-40.1877 -93.56662,-49.4767 -28.37231,-9.28909 -53.89519,-28.788821 -56.71748,-43.332895 -8.73853,-45.031374 65.72389,-48.818392 167.31361,-8.509139 80.45808,31.924524 95.74786,44.840924 95.74786,80.885254 0,55.24195 -55.0797,65.22153 -112.77737,20.43348 z"
       id="path1" /></g></svg>
