<?xml version="1.0" encoding="UTF-8" standalone="no"?>
<!-- Created with Inkscape (http://www.inkscape.org/) -->

<svg
   width="400mm"
   height="600mm"
   viewBox="0 0 400 600"
   version="1.1"
   id="svg1"
   xml:space="preserve"
   inkscape:version="1.3.2 (091e20e, 2023-11-25, custom)"
   sodipodi:docname="幸.svg"
   xmlns:inkscape="http://www.inkscape.org/namespaces/inkscape"
   xmlns:sodipodi="http://sodipodi.sourceforge.net/DTD/sodipodi-0.dtd"
   xmlns="http://www.w3.org/2000/svg"
   xmlns:svg="http://www.w3.org/2000/svg"><sodipodi:namedview
     id="namedview1"
     pagecolor="#ffffff"
     bordercolor="#000000"
     borderopacity="0.25"
     inkscape:showpageshadow="2"
     inkscape:pageopacity="0.0"
     inkscape:pagecheckerboard="0"
     inkscape:deskcolor="#d1d1d1"
     inkscape:document-units="mm"
     inkscape:zoom="0.26425487"
     inkscape:cx="314.09071"
     inkscape:cy="1042.5541"
     inkscape:window-width="1920"
     inkscape:window-height="1017"
     inkscape:window-x="-8"
     inkscape:window-y="-8"
     inkscape:window-maximized="1"
     inkscape:current-layer="layer1" /><defs
     id="defs1" /><g
     inkscape:label="图层 1"
     inkscape:groupmode="layer"
     id="layer1"><path
       style="fill:#000000;stroke-width:3.78938"
       d="m 223.73968,594.02051 c -13.03832,-8.72059 -17.64921,-15.69685 -22.28249,-33.71347 -2.87284,-11.17091 -2.70744,-15.686 0.74568,-20.35448 2.36574,-3.19843 2.36574,-3.19843 2.70679,-48.98518 0.38102,-51.15769 -0.54749,-94.41316 -2.02664,-94.41316 -0.52736,0 -9.16174,5.04245 -19.18746,11.20546 -31.86985,19.59101 -52.86195,30.82206 -65.22025,34.89371 -5.95688,1.96257 -8.40835,2.21092 -18.14578,1.8382 -13.799568,-0.52821 -18.734596,-2.62919 -28.857101,-12.28526 -8.271694,-7.89056 -8.55999,-9.87926 -3.007823,-20.75048 6.226109,-12.19083 15.463944,-20.07763 20.207341,-17.252 0.879665,0.52399 3.404084,4.53821 5.6098,8.92044 3.617801,7.18767 4.319676,7.99775 7.169063,8.27446 3.66745,0.3562 14.69058,-5.17411 45.96916,-23.06242 11.02871,-6.30731 27.82401,-15.72367 37.32294,-20.92521 9.49895,-5.20153 17.49027,-10.01389 17.75853,-10.69417 0.5709,-1.44777 -0.90609,-20.19544 -2.53052,-32.12025 -1.64145,-12.04963 -1.74297,-12.12473 -17.78411,-13.15515 -7.34704,-0.47196 -13.84334,-1.34315 -14.43619,-1.93599 -1.56842,-1.56843 0.89054,-4.86076 8.82639,-11.8178 14.19541,-12.4446 15.45901,-13.89089 15.45901,-17.69438 0,-1.9615 -0.83782,-4.56464 -1.88563,-5.85861 -1.88563,-2.32865 -1.88563,-2.32865 -6.26631,0.55397 -2.40937,1.58544 -7.76445,5.44823 -11.90022,8.58397 -11.05052,8.3786 -30.67039,21.3038 -37.79914,24.90145 -8.66859,4.37469 -20.5962,7.49684 -26.48051,6.93142 -9.941753,-0.9553 -22.947226,-10.37108 -22.947226,-16.61352 0,-6.09526 11.376833,-18.76939 26.067816,-29.04032 23.43279,-16.38264 35.09124,-26.38855 35.09124,-30.11723 0,-0.97489 -2.8709,-3.91436 -6.50178,-6.65696 -7.88146,-5.95339 -11.22651,-10.55446 -12.45738,-17.13514 -1.21696,-6.50625 -0.0303,-12.63566 5.05365,-26.13007 4.9315,-13.08668 6.51788,-20.85835 5.03173,-24.65085 -1.32549,-3.38259 -6.00675,-4.80945 -15.80401,-4.8171 -6.36537,-0.003 -7.41639,-0.28989 -9.77543,-2.64886 -2.67012,-2.67012 -3.03886,-3.83595 -2.65215,-8.38545 0.27587,-3.24447 1.6319,-5.83921 4.8938,-9.3636 3.53689,-3.82152 6.11776,-5.0644 21.35064,-10.28207 20.01624,-6.8561 27.6077,-11.32295 34.88062,-20.52384 3.35801,-4.2482 4.05336,-5.89185 4.05336,-9.581038 0,-3.172397 -0.46518,-4.631688 -1.61746,-5.073872 -0.88956,-0.341423 -12.2817,1.590291 -25.31581,4.292577 -22.96196,4.760523 -24.22815,4.913203 -40.74278,4.913203 -16.698859,0 -17.137374,-0.0546 -21.63476,-2.69865 -2.524753,-1.484263 -5.756756,-4.461127 -7.182285,-6.615241 -2.60361,-3.934289 -10.78595,-22.2829 -10.78595,-24.187066 0,-2.038082 3.755999,-2.859014 16.041711,-3.506127 22.737594,-1.197673 40.405864,-2.694745 55.143454,-4.6725 28.36782,-3.80689 32.60078,-4.876898 33.50228,-8.468892 0.33574,-1.338297 -0.29709,-10.640135 -1.40665,-20.670785 -1.10958,-10.03065 -2.0174,-19.483115 -2.0174,-21.005424 0,-3.6701317 4.2122,-8.5265677 8.06359,-9.2968357 5.14847,-1.0296892 8.99261,1.5305698 19.85708,13.2252897 11.58214,12.467224 16.41451,15.494827 30.73187,19.254274 10.48909,2.754238 20.45664,8.157254 27.72593,15.02915 4.72164,4.463591 5.86142,6.15214 5.86142,8.683714 0,4.978415 -4.05722,7.554439 -17.68975,11.231504 -23.71764,6.397314 -25.68244,7.123739 -29.11623,10.764654 -3.75164,3.977867 -5.31612,8.728126 -5.324,16.165321 -0.008,6.763254 1.93444,8.824984 9.15943,9.725944 13.92792,1.73683 23.64014,3.76233 25.92624,5.40703 6.15187,4.42585 7.34701,12.70604 3.04973,21.12938 -2.45658,4.81532 -4.40572,5.52094 -21.09667,7.6372 -16.32705,2.07014 -24.5893,4.00546 -29.55457,6.92275 -7.70552,4.52729 -21.57842,20.8474 -21.57842,25.38489 0,0.46249 8.91066,0.81885 19.8015,0.7919 18.22772,-0.0451 20.34126,0.13755 26.59271,2.29652 11.98105,4.1379 17.03514,11.58665 14.75753,21.74978 -1.45171,6.47783 -2.84082,8.88046 -11.64958,20.14921 -4.22895,5.40995 -7.73508,10.52656 -7.79147,11.37023 -0.15878,2.37625 6.89016,1.51587 32.98359,-4.02584 41.59228,-8.83336 41.50955,-8.8337 48.16636,0.2088 9.11249,12.37843 5.32916,17.5899 -22.51061,31.00818 -40.49073,19.51586 -37.64945,17.67157 -37.98379,24.6554 -0.33877,7.07395 -2.44859,6.13357 18.83706,8.39542 12.29815,1.3068 17.1315,2.85617 36.94437,11.84277 21.52498,9.76315 30.9956,15.09015 36.22916,20.37808 5.22404,5.27836 10.54001,14.24611 9.47062,15.97643 -1.28464,2.07863 -16.73926,8.62452 -36.01499,15.25438 -27.97645,9.62247 -48.35177,17.35247 -53.14844,20.16355 -2.32457,1.36224 -5.58775,4.02727 -7.25153,5.9222 -3.02506,3.44538 -3.02506,3.44538 -3.65444,50.41937 -2.32217,173.32527 -2.20432,169.79345 -5.66558,169.79345 -0.43771,0 -4.20057,-2.27723 -8.36188,-5.06045 z m 26.3558,-255.73716 c 8.84769,-4.10319 17.13613,-10.10004 17.13613,-12.39834 0,-3.7616 -15.33417,-9.03358 -23.23309,-7.98767 -7.7934,1.03189 -8.29871,1.81826 -8.69777,13.53606 -0.47474,13.94041 -0.48451,13.93586 14.79473,6.84995 z m -72.78977,-122.367 c 7.25159,-5.04701 11.82818,-9.29986 14.74229,-13.69934 5.6513,-8.53195 2.70944,-12.13345 -10.60918,-12.98823 -8.80277,-0.56492 -11.00126,0.49846 -13.71522,6.63381 -4.9149,11.11097 -5.9685,20.01954 -2.74851,23.23953 1.87791,1.8779 2.25632,1.91375 5.57251,0.52817 1.95677,-0.8176 4.99794,-2.48888 6.75811,-3.71394 z"
       id="path1" /></g></svg>
