<?xml version="1.0" encoding="UTF-8" standalone="no"?>
<!-- Created with Inkscape (http://www.inkscape.org/) -->

<svg
   width="400mm"
   height="400mm"
   viewBox="0 0 400 400"
   version="1.1"
   id="svg1"
   inkscape:version="1.3.2 (091e20e, 2023-11-25, custom)"
   sodipodi:docname="您.svg"
   xmlns:inkscape="http://www.inkscape.org/namespaces/inkscape"
   xmlns:sodipodi="http://sodipodi.sourceforge.net/DTD/sodipodi-0.dtd"
   xmlns="http://www.w3.org/2000/svg"
   xmlns:svg="http://www.w3.org/2000/svg">
  <sodipodi:namedview
     id="namedview1"
     pagecolor="#ffffff"
     bordercolor="#000000"
     borderopacity="0.25"
     inkscape:showpageshadow="2"
     inkscape:pageopacity="0.0"
     inkscape:pagecheckerboard="0"
     inkscape:deskcolor="#d1d1d1"
     inkscape:document-units="px"
     inkscape:zoom="0.21761979"
     inkscape:cx="-73.522724"
     inkscape:cy="369.91121"
     inkscape:window-width="1920"
     inkscape:window-height="1017"
     inkscape:window-x="-8"
     inkscape:window-y="-8"
     inkscape:window-maximized="1"
     inkscape:current-layer="layer1" />
  <defs
     id="defs1" />
  <g
     inkscape:label="图层 1"
     inkscape:groupmode="layer"
     id="layer1">
    <g
       inkscape:label="图层 1"
       inkscape:groupmode="layer"
       id="layer1-3"
       transform="matrix(10.973628,0,0,10.973628,-892.13189,-1376.865)">
      <path
         style="display:inline;fill:#000000"
         d="m 100.09612,158.45905 c -0.604693,-0.27456 -1.854849,-1.08953 -2.778134,-1.81105 -0.923286,-0.72152 -2.09542,-1.52118 -2.604743,-1.77702 -0.509322,-0.25583 -1.067792,-0.57804 -1.241043,-0.71601 l -0.315002,-0.25086 0.144872,-0.37753 0.144872,-0.37754 0.699296,10e-4 0.699297,0.001 2.364699,1.58601 2.364699,1.58601 h 0.874407 0.87441 l 0.70724,-0.79375 c 0.38897,-0.43656 0.80247,-0.79375 0.91887,-0.79375 0.1164,0 0.6325,0.36953 1.14689,0.82116 l 0.93525,0.82116 v 0.46075 c 0,0.25342 -0.20836,0.64135 -0.46302,0.86208 -0.25466,0.22074 -1.04978,0.59638 -1.76693,0.83476 -0.71714,0.23839 -1.37199,0.43081 -1.4552,0.42762 -0.0832,-0.003 -0.64605,-0.23045 -1.25073,-0.50502 z m -10.356963,-0.3588 c -0.312626,-0.33278 -0.59037,-0.83879 -0.617209,-1.12448 -0.02684,-0.28569 -0.02993,-1.01743 -0.0069,-1.62608 l 0.04192,-1.10665 0.542121,-0.17207 0.542122,-0.17206 0.614392,0.40257 0.614392,0.40256 0.126746,1.52839 c 0.06971,0.84061 0.07117,1.74089 0.0033,2.00063 l -0.123493,0.47223 H 90.892069 90.30759 Z m 20.518363,-2.85573 -0.46302,-0.26969 v -0.48861 -0.48861 l 0.99219,-0.87178 0.99218,-0.87179 v -0.80927 -0.80927 l 1.01242,-0.0833 1.01241,-0.0833 0.5881,0.38534 c 0.32346,0.21193 0.81529,0.88914 1.09296,1.50491 l 0.50486,1.11957 -0.61333,0.49664 c -0.33733,0.27315 -0.82839,0.49664 -1.09125,0.49664 -0.26286,0 -1.03344,0.23813 -1.71242,0.52917 -0.67897,0.29104 -1.37345,0.52554 -1.54329,0.52112 -0.16983,-0.004 -0.51715,-0.1294 -0.77181,-0.27773 z m -7.1904,-1.68223 -1.568,-0.33615 -0.6291,-0.73138 -0.6291,-0.73137 0.0804,-0.56394 0.0804,-0.56395 0.5929,-0.0842 c 0.3261,-0.0463 1.28653,0.16203 2.13429,0.46302 0.84775,0.30099 1.80134,0.54725 2.11907,0.54725 h 0.5777 l 0.52917,0.52917 c 0.29104,0.29104 0.52916,0.63973 0.52916,0.77485 0,0.13513 -0.1871,0.43279 -0.41577,0.66146 l -0.41577,0.41577 -0.70871,-0.0222 c -0.38979,-0.0122 -1.41431,-0.17344 -2.27671,-0.35833 z m -16.195373,-3.68036 -0.764364,-0.64317 -0.327278,-1.22365 c -0.180003,-0.67301 -0.327278,-1.45547 -0.327278,-1.7388 v -0.51515 l -1.058333,-1.04781 c -0.582084,-0.57629 -1.058334,-1.17061 -1.058334,-1.32069 0,-0.15009 0.132214,-0.56306 0.293809,-0.91772 0.161594,-0.35466 0.565763,-0.79039 0.898152,-0.96828 l 0.604343,-0.32343 0.997142,-2.02074 c 0.548428,-1.1114 1.309455,-2.85417 1.691173,-3.87282 l 0.694031,-1.85208 h 0.784113 0.784112 l 0.07754,1.75564 0.07754,1.75564 -0.343815,0.36102 c -0.189098,0.19857 -0.601489,1.14565 -0.916424,2.10464 -0.314934,0.95899 -0.931352,2.30929 -1.369817,3.00068 l -0.797208,1.25706 0.139535,0.43891 c 0.07674,0.2414 0.261881,0.76633 0.411416,1.16651 0.149535,0.40018 0.328364,0.7276 0.397397,0.7276 0.06903,0 0.4635,-0.19965 0.876592,-0.44367 l 0.751076,-0.44367 0.414226,0.34378 c 0.227824,0.18908 0.414226,0.58666 0.414226,0.88353 0,0.29686 -0.329775,1.08595 -0.732833,1.75354 -0.403059,0.66758 -0.858049,1.44483 -1.011091,1.72721 -0.153041,0.28238 -0.403589,0.55519 -0.556774,0.60625 -0.153185,0.0511 -0.622482,-0.19658 -1.042882,-0.55033 z m 13.993063,-3.10547 -1.389067,-1.35166 v -0.5035 -0.50351 h 0.529177 0.52916 l 0.0293,-0.33072 c 0.0161,-0.18191 0.004,-1.16266 -0.0267,-2.17945 l -0.056,-1.84871 -0.509812,-0.99932 -0.509817,-0.99932 0.271341,-0.507 c 0.149242,-0.27886 0.620008,-0.75528 1.046148,-1.05872 0.42614,-0.30344 1.38732,-1.32147 2.13595,-2.26229 l 1.36116,-1.71058 -0.18134,-0.29341 -0.18134,-0.29341 -0.94315,0.17693 c -0.51873,0.0973 -1.86533,0.6406 -2.992442,1.2073 l -2.049303,1.03037 -0.416841,0.59512 c -0.229262,0.32732 -0.416841,0.81049 -0.416841,1.07372 v 0.4786 l -0.438213,0.16816 -0.438213,0.16816 -0.752412,-0.8421 c -0.413826,-0.46315 -0.752412,-1.01251 -0.752412,-1.22079 0,-0.20829 0.297657,-0.93852 0.661459,-1.62273 0.363802,-0.68422 0.661458,-1.50619 0.661458,-1.8266 0,-0.32042 0.134701,-0.98729 0.299336,-1.48195 0.164635,-0.49466 0.469972,-1.07797 0.678527,-1.29625 l 0.379192,-0.39688 0.536423,0.65466 0.536422,0.65467 -0.15719,0.98301 -0.15719,0.98301 0.259489,0.16038 0.259488,0.16037 0.733272,-0.52255 c 0.4033,-0.2874 1.660741,-0.77665 2.794301,-1.08722 l 2.06103,-0.56467 0.94682,0.4798 0.94681,0.47979 0.42923,0.73148 0.42923,0.73148 -0.64696,1.2529 -0.64696,1.25289 -1.93022,1.90229 c -1.06161,1.04626 -1.92848,2.0583 -1.92636,2.24896 0.002,0.19067 0.1915,0.88245 0.42086,1.53729 0.22935,0.65485 0.54039,2.32172 0.69119,3.70417 0.15081,1.38245 0.28884,2.87073 0.30675,3.30729 l 0.0326,0.79375 -0.52917,0.0692 -0.52917,0.0692 z m -6.310317,-0.61242 -0.899583,-0.89958 0.0044,-0.62177 c 0.0024,-0.34197 0.270284,-1.08876 0.595312,-1.65953 0.325028,-0.57077 0.732347,-1.08423 0.905153,-1.14102 0.172806,-0.0568 0.559759,0.14232 0.859896,0.44245 l 0.545703,0.5457 v 1.95607 1.95607 l -0.418515,0.1606 c -0.230183,0.0883 -0.480214,0.1606 -0.555625,0.1606 -0.07541,0 -0.541923,-0.40481 -1.036694,-0.89959 z m 13.365877,-2.64102 c -0.4972,-0.49213 -1.52907,-1.21898 -2.29306,-1.61523 l -1.38906,-0.72045 v -0.47313 -0.47313 l 0.39687,-0.1523 c 0.21829,-0.0838 0.60524,-0.0804 0.8599,0.007 0.25466,0.0879 1.31708,0.55112 2.36094,1.02948 l 1.89792,0.86973 0.28489,0.53233 c 0.15669,0.29278 0.2849,0.65072 0.2849,0.79541 0,0.14469 -0.1871,0.45018 -0.41578,0.67885 -0.22867,0.22868 -0.56602,0.41577 -0.74965,0.41577 -0.18363,0 -0.74068,-0.40264 -1.23787,-0.89477 z"
         id="path16438" />
    </g>
  </g>
</svg>
