<?xml version="1.0" encoding="UTF-8" standalone="no"?>
<!-- Created with Inkscape (http://www.inkscape.org/) -->

<svg
   width="400mm"
   height="400mm"
   viewBox="0 0 400 400"
   version="1.1"
   id="svg1"
   inkscape:version="1.3.2 (091e20e, 2023-11-25, custom)"
   sodipodi:docname="您.svg"
   xml:space="preserve"
   xmlns:inkscape="http://www.inkscape.org/namespaces/inkscape"
   xmlns:sodipodi="http://sodipodi.sourceforge.net/DTD/sodipodi-0.dtd"
   xmlns="http://www.w3.org/2000/svg"
   xmlns:svg="http://www.w3.org/2000/svg"><sodipodi:namedview
     id="namedview1"
     pagecolor="#ffffff"
     bordercolor="#000000"
     borderopacity="0.25"
     inkscape:showpageshadow="2"
     inkscape:pageopacity="0.0"
     inkscape:pagecheckerboard="0"
     inkscape:deskcolor="#d1d1d1"
     inkscape:document-units="px"
     inkscape:zoom="0.30776086"
     inkscape:cx="614.11318"
     inkscape:cy="888.67701"
     inkscape:window-width="1920"
     inkscape:window-height="1017"
     inkscape:window-x="-8"
     inkscape:window-y="-8"
     inkscape:window-maximized="1"
     inkscape:current-layer="layer1" /><defs
     id="defs1" /><g
     inkscape:label="图层 1"
     inkscape:groupmode="layer"
     id="layer1"><path
       style="display:inline;fill:#000000;stroke-width:12.1366"
       d="m 205.12724,379.33947 c -7.33893,-3.33223 -22.51159,-13.2232 -33.71715,-21.98002 -11.20556,-8.75681 -25.43131,-18.46197 -31.61276,-21.56701 -6.78021,-3.16401 -18.90845,-10.27085 -18.88512,-11.73453 -2.00942,-7.83127 3.51651,-9.16399 3.51651,-9.16399 6.30308,-1.59682 16.97418,0.0243 16.97418,0.0243 2.02048,0.29735 51.85218,35.55616 57.65102,37.65713 3.10951,0.67237 17.52689,2.60537 20.97259,0.84107 6.42246,-4.98851 14.0576,-19.36057 19.73548,-19.26688 5.3361,0.085 23.32463,17.9395 25.27013,19.93221 0.50488,1.24789 0,5.59194 0,5.59194 0,3.07567 -2.41349,7.92291 -5.6195,10.46274 -12.96676,10.27231 -37.00187,15.18036 -39.10575,15.32102 -2.43849,-0.20511 -7.84086,-2.79688 -15.17963,-6.12923 z M 70.868261,361.21866 c 0.783661,-10.92806 -0.647003,-17.36726 1.494697,-32.0965 1.961059,-3.56562 7.929556,-4.77078 13.159041,-5.12736 4.932358,0.47576 13.13771,5.80495 14.913271,9.77156 0.35657,2.19879 -0.646757,10.31345 -1.076144,22.72484 -0.24468,7.07419 4.001914,16.26792 1.155644,25.83679 C 95.879546,384.70507 86.505854,381.3777 86.505854,381.3777 76.062211,375.15683 72.947858,369.24776 70.868261,361.21866 Z M 322.83276,337.05283 c 0,0 -3.20905,-4.72903 0,-11.86014 3.68443,-5.586 12.04183,-10.58046 12.04183,-10.58046 0,0 11.53743,-7.63915 14.14267,-12.0093 2.19976,-5.43648 -9.52894,-13.82762 -2.10097,-19.3914 2.01614,-2.79507 14.32109,-2.56666 24.57459,-0.84593 15.63026,8.80342 26.8076,28.55006 26.52967,36.52903 -0.20754,5.94731 -16.96092,10.64649 -20.68783,12.05506 -9.02042,3.40918 -33.95425,12.89164 -39.51331,12.74697 -3.38648,-0.46605 -11.49155,-2.35985 -14.98665,-6.64383 z M 222.15491,315.45148 c -5.07505,-1.38722 -11.6878,-7.28076 -15.27029,-17.37466 0,0 -2.80246,-8.57816 1.95157,-13.68877 6.13227,-3.93214 23.99142,1.36403 33.09886,4.59759 11.2203,4.29952 18.44377,6.16637 32.61084,7.35491 6.96339,1.70811 13.19493,8.65936 12.96337,15.11325 -0.19783,5.50322 -4.69141,9.33718 -10.44866,11.76657 l -9.78988,0.56192 c 0,0 -42.17438,-7.70056 -45.11581,-8.33081 z M 44.628108,275.24226 c 0,0 -7.612863,-4.35923 -9.276793,-7.80591 -2.377041,-4.5164 -3.972047,-14.85097 -3.972047,-14.85097 -2.184628,-8.16806 -3.972048,-17.66448 -3.972048,-21.10315 -2.521273,-8.7403 -2.759648,-9.3884 -12.844581,-18.96904 -7.0645296,-6.99421 -11.3049419,-14.27133 -11.2887032,-16.8097 0.018205,-2.82771 0.048546,-6.05265 2.0099572,-10.35703 1.9612044,-4.30437 6.866448,-9.59266 10.900525,-11.75164 9.167139,-7.20721 14.073936,-18.37156 19.436609,-28.45029 6.65606,-13.48864 15.892353,-34.63997 20.525118,-47.002931 l 9.011474,-21.637524 c 3.935528,-4.801367 11.906737,-4.048168 15.755343,0.50367 3.22641,10.889093 5.358037,31.034905 4.571462,41.270445 -1.307368,2.793 -4.410458,5.09471 -4.410458,5.09471 -2.29501,2.40996 -7.062333,13.19116 -10.884579,24.83006 -3.822233,11.63889 -11.303462,28.02696 -16.624943,36.4181 -10.042904,14.0349 -9.255202,13.91184 -9.675408,15.25645 -0.718123,1.53565 4.303681,13.06228 6.686681,19.48437 1.814849,4.85683 3.321137,8.67137 4.823055,8.8306 1.243336,0.13229 5.739637,-2.23763 10.638861,-5.38465 8.557346,-5.49692 8.521264,-5.33914 9.115521,-5.42665 1.264599,0.0364 1.902123,0.0486 5.027302,4.21432 2.154844,2.87541 5.027302,7.12007 5.027302,10.72307 0,3.60287 -4.002352,13.17976 -8.894113,21.28204 -4.891772,8.10216 -10.413811,17.53535 -12.271223,20.96248 -1.8574,3.42714 -4.125673,5.8467 -6.579078,7.4173 -0.672368,0.18933 -1.128341,1.04617 -12.835236,-6.73813 z m 169.828432,-37.6899 c 0,0 -16.03984,-15.94788 -16.69353,-17.07695 -2.17621,-4.87794 -3.04635,-9.48379 -0.0376,-11.07393 1.64354,-0.58984 6.29451,0.10923 6.29451,0.10923 0,0 5.0583,1.12506 6.12802,0.23424 0.45877,-0.58256 0.64931,-4.83317 0.64931,-4.83317 0.1954,-2.20777 0.0486,-14.11076 -0.32404,-26.45115 0,0 0.89082,-19.09806 -0.0971,-22.43708 -0.84471,-2.42235 -6.77257,-12.12836 -6.77257,-12.12836 -4.79033,-6.30303 -5.15988,-9.45443 -5.6022,-12.12837 0.58826,-3.94998 2.70791,-6.15326 2.70791,-6.15326 2.04943,-4.65694 7.52475,-9.16655 12.69665,-12.84928 5.1719,-3.68274 16.83737,-16.038175 25.9232,-27.456546 l 15.68789,-20.760653 c 0,0 3.68018,-6.408862 -3.56975,-7.122009 l -11.44665,2.147331 c -6.29562,1.180893 -22.63879,7.774717 -36.31807,14.652537 l -24.8716,12.505205 -5.05904,7.222743 c -2.78247,3.972558 -5.05904,9.836602 -5.05904,13.031332 v 5.80858 c -3.12266,3.53758 -4.04546,3.79828 -10.51799,3.131 -5.4672,-2.49589 -7.34896,-5.34739 -10.32027,-8.91288 -4.07162,-5.85883 -8.38915,-8.499397 -8.06206,-15.172837 0.44044,-8.985587 5.51419,-11.390457 9.09755,-19.575634 2.98909,-6.640185 6.95819,-18.398867 6.95819,-22.287561 0,-3.888814 1.63481,-11.98236 3.63292,-17.985858 1.99811,-6.003499 5.70387,-13.082908 8.23502,-15.732089 3.10953,-4.096958 3.82474,-4.648688 4.60211,-4.81678 0.77213,0.02427 1.63238,0.917528 6.56978,7.76707 5.95667,5.514757 7.1893,6.569672 7.03519,8.124858 -0.0182,0.207536 0.5158,0.03641 -2.49201,11.929323 0,0 -1.96718,10.117933 -1.64034,12.049232 0.0655,1.201525 3.5702,2.27064 5.58129,1.815638 21.31457,-11.399074 31.9835,-14.488571 43.26267,-17.578796 0,0 20.61635,-5.308071 25.01393,-5.42701 10.96846,0.877478 12.61528,3.995253 22.21874,11.102334 7.97243,6.792258 9.68332,12.785561 10.01186,16.873052 -2.14065,10.971137 -6.89979,18.325684 -15.11858,29.826584 l -22.84111,23.672594 c -12.88436,12.69805 -23.40522,24.9808 -23.37949,27.29476 0.0243,2.31409 2.32416,10.70996 5.10781,18.6575 2.78353,7.94766 6.55851,28.17783 8.38871,44.95609 1.83032,16.77827 3.50554,34.84095 3.72291,40.13931 l 0.39565,9.63344 c 0,0 -0.83621,3.21681 -5.23379,2.26603 -10.91094,-1.92378 -16.6961,-9.43149 -24.46597,-16.99029 z m -76.5859,-7.43271 c 0,0 -10.40232,-9.93588 -10.91789,-10.91785 -0.7725,-3.62497 -0.88841,-4.81338 -0.53183,-7.41013 0.0291,-4.26542 3.86558,-13.34992 7.81032,-20.27714 3.94474,-6.92721 8.88822,-13.15888 10.9855,-13.84812 2.09728,-0.68936 6.6567,1.37969 11.60672,4.78462 3.209,3.50615 5.05361,5.88905 5.45249,7.20818 0.1681,0.53522 0,23.74007 0,23.74007 0,0 -0.52333,21.45875 -1.17045,22.56962 -1.57576,3.06741 -3.90885,3.70482 -3.90885,3.70482 -2.79365,1.07166 -5.61246,1.12871 -6.74341,0.77917 -3.76645,-1.16511 -6.57711,-4.32779 -12.58196,-10.33275 z m 162.21652,-32.05304 c -6.03433,-5.97279 -18.55774,-14.79429 -27.82999,-19.60343 0,0 -14.90813,-7.58417 -16.3962,-8.91192 -1.32265,-2.10849 -2.25025,-7.84959 -0.12623,-11.08522 1.95388,-1.76478 3.42993,-2.20558 4.30559,-2.58995 2.42502,-0.80102 7.52046,-0.46483 10.61117,0.59591 3.09071,1.06681 15.98489,6.68873 28.65382,12.4944 0,0 18.69621,6.27694 21.84579,9.66415 4.09623,4.40547 7.1356,9.80577 7.92557,17.54056 0,3.77655 -2.09247,4.9288 -4.86787,7.70408 -2.77528,2.7754 -6.86957,5.04604 -9.09822,5.04604 -2.22865,0 -8.98935,-4.88668 -15.02355,-10.85948 z"
       id="path16438"
       sodipodi:nodetypes="csccccccscsscccccccscccccccccsccccccscsccccsccssccsccccsccssscsscsccccccccccccssccccsccscccscssccccccccccccccccccccccssccccccscccsccccccscsccsc" /></g></svg>
