<?xml version="1.0" encoding="UTF-8" standalone="no"?>
<!-- Created with Inkscape (http://www.inkscape.org/) -->

<svg
   width="400mm"
   height="400mm"
   viewBox="0 0 400 400"
   version="1.1"
   id="svg1"
   xml:space="preserve"
   inkscape:version="1.3.2 (091e20e, 2023-11-25, custom)"
   sodipodi:docname="我.svg"
   xmlns:inkscape="http://www.inkscape.org/namespaces/inkscape"
   xmlns:sodipodi="http://sodipodi.sourceforge.net/DTD/sodipodi-0.dtd"
   xmlns="http://www.w3.org/2000/svg"
   xmlns:svg="http://www.w3.org/2000/svg"><sodipodi:namedview
     id="namedview1"
     pagecolor="#ffffff"
     bordercolor="#000000"
     borderopacity="0.25"
     inkscape:showpageshadow="2"
     inkscape:pageopacity="0.0"
     inkscape:pagecheckerboard="0"
     inkscape:deskcolor="#d1d1d1"
     inkscape:document-units="mm"
     inkscape:zoom="0.37371282"
     inkscape:cx="230.12322"
     inkscape:cy="681.00419"
     inkscape:window-width="1920"
     inkscape:window-height="1017"
     inkscape:window-x="-8"
     inkscape:window-y="-8"
     inkscape:window-maximized="1"
     inkscape:current-layer="layer1" /><defs
     id="defs1" /><g
     inkscape:label="图层 1"
     inkscape:groupmode="layer"
     id="layer1"><path
       style="fill:#000000;stroke-width:2.1034"
       d="m 333.22334,383.50051 c -7.12491,-7.71341 -20.08178,-23.77489 -28.79305,-35.6922 -8.71124,-11.91731 -21.50647,-25.02021 -28.43381,-29.11759 -11.11281,-6.57303 -12.32523,-8.7994 -10.30169,-18.91714 1.65722,-8.28604 0.16154,-14.46141 -5.39147,-22.25985 -4.22671,-5.93589 -13.67026,-23.85556 -20.98565,-39.82149 -19.30667,-42.13719 -19.61239,-42.38142 -43.3665,-34.64302 -11.71073,3.815 -20.04046,8.84839 -20.76592,12.54819 -1.94277,9.90813 9.32908,11.26648 23.06193,2.77913 28.39496,-17.54905 28.95974,-2.10781 0.87334,23.87757 -20.28424,18.76683 -20.28424,18.76683 -19.99955,52.54194 0.28158,33.40751 -2.56237,44.52469 -15.0519,58.83866 -15.25787,17.48671 -64.339057,-27.71398 -64.339057,-59.25227 0,-12.6317 15.943977,-30.29332 40.375907,-44.72561 13.68119,-8.0817 17.54619,-15.58967 11.67011,-22.66991 -3.47996,-4.19311 -6.15433,-3.99215 -15.95882,1.1992 -7.78203,4.1205 -23.97101,6.76525 -47.714313,7.79497 -38.343261,1.66292 -53.359017,-2.31116 -51.181919,-13.54578 1.004886,-5.18563 4.893753,-6.07349 22.110152,-5.04788 22.397653,1.33427 49.48251,-5.17488 70.61756,-16.97114 11.26063,-6.28497 13.25009,-9.4849 14.23942,-22.90332 1.38796,-18.82548 9.08514,-20.74575 17.54917,-4.37813 5.71788,11.05716 15.6792,14.48957 22.62599,7.79634 1.95407,-1.88274 7.74297,-3.98638 12.86425,-4.67479 12.1299,-1.63051 13.48941,-10.20267 5.75929,-36.31389 -11.32079,-38.23991 -11.80559,-38.95109 -21.99931,-32.27192 -13.68407,8.96616 -65.21728,9.43598 -78.53699,0.71603 -13.755531,-9.005304 -11.821587,-19.729806 3.33582,-18.49843 6.09011,0.49475 19.20128,-1.989709 29.13592,-5.521013 17.70643,-6.293833 18.34814,-6.25644 32.50983,1.893992 9.01128,5.18623 15.33549,6.87671 16.8087,4.493015 1.29902,-2.101857 -2.24164,-21.516004 -7.86813,-43.14256 -10.36145,-39.8264115 -9.66727,-49.3907854 3.22573,-44.4432841 5.77975,2.2178998 18.1919,37.0235081 23.26946,65.2512071 1.29499,7.199179 5.42225,21.504046 9.17169,31.788533 3.74943,10.28455 8.67636,25.57762 10.94872,33.98461 4.9441,18.29168 13.36008,26.66029 28.50506,28.34472 15.01306,1.66978 17.32731,14.54515 3.90552,21.72828 -11.47176,6.13949 -11.71122,9.87765 -2.0356,31.7772 4.11381,9.31112 10.82364,24.50247 14.91073,33.75856 4.08708,9.25609 9.21414,16.82926 11.39343,16.82926 2.17933,0 6.82923,-5.26087 10.33316,-11.69082 15.65984,-28.73692 27.39363,-37.08365 43.46325,-30.91715 9.20183,3.53109 7.06972,12.02191 -7.2072,28.70125 -7.21752,8.43207 -15.84417,23.96424 -19.1703,34.51596 -6.01096,19.06892 -5.98786,19.27938 3.82013,34.81625 11.39953,18.05803 19.97094,20.1846 21.67986,5.37879 1.93554,-16.76922 12.2844,-14.83764 18.9855,3.54358 9.37737,25.72231 15.34539,53.87088 12.81804,60.45708 -3.92961,10.2404 -17.23788,6.81913 -30.86649,-7.93513 z M 151.9168,306.57894 c 4.38738,-17.11511 4.52341,-22.12376 0.70364,-25.90778 -3.80511,-3.7695 -6.87374,-2.11986 -15.62278,8.39854 -12.4522,14.97045 -13.7844,24.48121 -4.81707,34.38997 9.35394,10.336 13.71566,6.60534 19.73621,-16.88073 z M 324.12006,124.43081 C 312.80707,114.16756 293.87417,99.768953 282.04695,92.433934 267.91782,83.671282 260.54291,76.62515 260.54291,71.888583 c 0,-12.97714 15.78774,-8.068332 49.50606,15.392675 34.4319,23.957452 48.72782,38.640132 46.89397,48.162522 -2.12163,11.01679 -12.30682,7.59937 -32.82288,-11.01297 z"
       id="path1" /></g></svg>
