<?xml version="1.0" encoding="UTF-8" standalone="no"?>
<!-- Created with Inkscape (http://www.inkscape.org/) -->

<svg
   width="400mm"
   height="600mm"
   viewBox="0 0 400 600"
   version="1.1"
   id="svg1"
   xml:space="preserve"
   inkscape:version="1.3.2 (091e20e, 2023-11-25, custom)"
   sodipodi:docname="护.svg"
   xmlns:inkscape="http://www.inkscape.org/namespaces/inkscape"
   xmlns:sodipodi="http://sodipodi.sourceforge.net/DTD/sodipodi-0.dtd"
   xmlns="http://www.w3.org/2000/svg"
   xmlns:svg="http://www.w3.org/2000/svg"><sodipodi:namedview
     id="namedview1"
     pagecolor="#ffffff"
     bordercolor="#000000"
     borderopacity="0.25"
     inkscape:showpageshadow="2"
     inkscape:pageopacity="0.0"
     inkscape:pagecheckerboard="0"
     inkscape:deskcolor="#d1d1d1"
     inkscape:document-units="mm"
     inkscape:zoom="0.18685641"
     inkscape:cx="-722.47989"
     inkscape:cy="858.94832"
     inkscape:window-width="1920"
     inkscape:window-height="1017"
     inkscape:window-x="-8"
     inkscape:window-y="-8"
     inkscape:window-maximized="1"
     inkscape:current-layer="layer1" /><defs
     id="defs1" /><g
     inkscape:label="图层 1"
     inkscape:groupmode="layer"
     id="layer1"><path
       id="path4"
       style="display:inline;fill:#191b29;fill-opacity:1;stroke:#000000;stroke-width:0.514608;stroke-opacity:1"
       d="m 102.24927,266.19671 c 3.44254,-4.30319 10.49974,-5.68021 13.08166,-5.16381 2.06552,2.75403 2.75403,12.04888 2.06552,14.11441 -3.78679,0.51638 -17.04058,-4.81955 -15.14718,-8.9506 z M 259.21481,7.113615 c -11.00332,0 -2.3476,15.14955 23.39258,40.94557 30.35565,30.421478 38.19563,34.430599 38.19563,19.530008 0,-6.825926 -8.50603,-17.28157 -28.55376,-35.098937 C 276.54485,18.53299 261.67922,7.113615 259.21481,7.113615 Z m 59.45541,75.336904 c -10.28758,0.130636 -28.51268,1.900274 -46.69574,4.681746 -24.24405,3.708615 -50.01019,6.732088 -57.25724,6.719054 -20.48709,-0.0368 -21.70695,9.936241 -2.45545,20.071741 7.08492,3.73007 15.91645,3.48805 39.22786,-1.07445 58.59853,-11.46885 65.18343,-11.7765 65.18343,-3.04242 0,8.07873 -24.35562,29.44425 -33.56516,29.44425 -2.86613,0 -10.27118,-4.84876 -16.4564,-10.7746 -16.72751,-16.02596 -21.44311,-10.01839 -18.11885,23.08301 2.79979,27.87933 2.80009,27.87941 -18.07161,45.47876 -17.75988,14.97533 -20.23833,18.7839 -16.62127,25.54247 3.60083,6.72822 7.05219,7.52171 22.57243,5.19433 18.32189,-2.74756 18.32186,-2.74651 18.32186,100.59092 0,73.04894 -1.73934,112.21812 -5.93507,133.63744 -6.01324,30.6978 -22.83085,82.33184 -33.59731,103.15192 -3.23925,6.26397 -5.88986,15.19764 -5.88986,19.85263 0,4.65497 1.64463,8.46289 3.65454,8.46289 6.27896,0 16.85529,-19.52595 36.48897,-67.36951 15.20968,-37.06317 19.12749,-51.68187 19.83655,-74.01821 0.48597,-15.30846 2.95025,-30.3249 5.47676,-33.36917 3.03127,-3.65244 4.97008,-40.52095 5.69989,-108.39849 1.106,-102.86308 1.10578,-102.86271 39.05902,-121.47881 20.87425,-10.23893 42.24334,-20.47434 47.4867,-22.74545 13.88179,-6.01273 11.68292,-15.82237 -4.736,-21.12917 -16.48769,-5.32902 -19.5848,-10.56409 -10.64296,-17.98517 14.9152,-12.37852 0.26444,-37.590177 -25.61885,-44.086471 -1.36976,-0.34379 -3.91706,-0.48279 -7.34624,-0.43924 z M 95.49488,106.21599 c -4.750818,0 -5.754288,6.07619 -4.91794,29.77996 1.032715,29.26868 0.843043,29.88231 -11.073117,35.69305 -6.668514,3.25179 -20.2986,6.83339 -30.288537,7.9594 -20.10047,2.26563 -26.391927,10.25088 -16.147866,20.49493 5.770165,5.77019 9.466168,5.92491 30.28251,1.26643 22.858391,-5.11549 23.985757,-4.96674 31.363989,4.14502 4.570417,5.6442 7.154401,14.35094 6.413511,21.61355 -1.07334,10.52142 -4.164113,13.24863 -22.919174,20.2205 -11.923298,4.4323 -21.678904,9.58123 -21.678904,11.44202 0,7.14469 15.560699,22.02226 41.327488,39.51329 30.16012,20.47333 44.13638,22.49773 41.94563,6.07681 -0.75746,-5.67777 -2.32518,-22.26562 -3.48264,-36.86287 -1.15749,-14.59726 -4.50968,-30.39183 -7.44977,-35.09894 -2.94012,-4.70707 -6.55139,-15.44398 -8.02569,-23.85895 -2.45071,-13.98809 -1.62362,-15.84701 9.65393,-21.6789 6.78436,-3.50833 21.77734,-6.37835 33.31692,-6.37835 15.29892,0 21.65728,-1.7641 23.48001,-6.51406 4.67408,-12.1805 -8.78995,-19.07766 -42.59893,-21.82275 -32.42226,-2.63248 -32.42219,-2.63298 -34.63158,-19.15009 -2.63418,-19.69277 -6.5141,-26.84005 -14.56984,-26.84005 z"
       sodipodi:nodetypes="ccccsssssssssssssssssssssssssssssssssssssssssssssssssssss" /></g></svg>
