<?xml version="1.0" encoding="UTF-8" standalone="no"?>
<!-- Created with Inkscape (http://www.inkscape.org/) -->

<svg
   width="400mm"
   height="400mm"
   viewBox="0 0 400 400"
   version="1.1"
   id="svg1"
   xml:space="preserve"
   inkscape:version="1.3.2 (091e20e, 2023-11-25, custom)"
   sodipodi:docname="来.svg"
   xmlns:inkscape="http://www.inkscape.org/namespaces/inkscape"
   xmlns:sodipodi="http://sodipodi.sourceforge.net/DTD/sodipodi-0.dtd"
   xmlns="http://www.w3.org/2000/svg"
   xmlns:svg="http://www.w3.org/2000/svg"><sodipodi:namedview
     id="namedview1"
     pagecolor="#ffffff"
     bordercolor="#000000"
     borderopacity="0.25"
     inkscape:showpageshadow="2"
     inkscape:pageopacity="0.0"
     inkscape:pagecheckerboard="0"
     inkscape:deskcolor="#d1d1d1"
     inkscape:document-units="mm"
     inkscape:zoom="0.37371282"
     inkscape:cx="781.34862"
     inkscape:cy="705.08686"
     inkscape:window-width="1920"
     inkscape:window-height="1017"
     inkscape:window-x="-8"
     inkscape:window-y="-8"
     inkscape:window-maximized="1"
     inkscape:current-layer="layer1" /><defs
     id="defs1" /><g
     inkscape:label="图层 1"
     inkscape:groupmode="layer"
     id="layer1"><path
       style="fill:#000000;stroke-width:2.64622"
       d="m 176.27289,393.22471 c -7.82761,-6.15722 -10.06057,-11.46188 -10.19354,-24.21595 -0.0937,-8.9824 -1.60855,-23.76413 -3.36649,-32.84828 -1.84899,-9.55472 -1.54859,-24.84969 0.71268,-36.28618 2.58522,-13.07485 2.59755,-22.70655 0.0365,-28.44264 -3.5762,-8.00947 -4.63117,-7.02783 -13.78756,12.82914 -5.45329,11.82626 -12.95605,31.50397 -16.67282,43.72825 -8.72987,28.71218 -21.35155,41.29653 -36.202362,36.09529 -14.535506,-5.09085 -16.102013,-19.03532 -3.63463,-32.35405 9.669182,-10.32945 30.080492,-50.09141 30.080492,-58.59783 0,-6.33197 -5.86814,-5.63335 -22.63541,2.6948 -31.320832,15.55681 -66.620933,20.38761 -70.170911,9.60288 -0.849965,-2.58223 13.812137,-14.89717 32.582463,-27.36653 18.770325,-12.46937 37.985378,-25.31051 42.700138,-28.53585 4.71474,-3.22534 13.30253,-11.48786 19.08396,-18.36116 5.78142,-6.87331 13.94889,-13.58787 18.14992,-14.92122 7.0894,-2.25008 14.84339,-19.47629 10.65303,-23.66668 -1.01856,-1.01852 -12.093,6.10051 -24.60989,15.82009 -12.51689,9.71958 -26.50359,17.67196 -31.081532,17.67196 -4.577901,0 -14.177765,-6.04009 -21.333001,-13.42243 -13.00954,-13.42243 -13.00954,-13.42243 9.00682,-48.31482 27.059173,-42.88437 27.658063,-49.111133 5.401027,-56.154249 -13.714651,-4.339953 -16.615406,-6.96418 -16.615406,-15.031619 0,-9.556572 0.781904,-9.817198 35.185572,-11.728533 33.05505,-1.836368 35.26266,-2.498743 36.45949,-10.939405 0.70067,-4.941597 -2.31644,-15.87301 -6.70472,-24.292079 -7.30107,-14.00743 -7.44944,-15.836601 -1.74724,-21.5388266 3.42727,-3.4272734 8.78737,-5.25059563 11.91133,-4.05180682 3.12394,1.19876232 6.35375,2.17958232 7.17736,2.17958232 5.45515,0 11.31403,23.2176391 15.43908,61.1820291 4.3946,40.445087 11.99133,63.972547 20.63176,63.897387 1.56309,-0.0132 5.8389,-5.29142 9.50179,-11.7285 7.75109,-13.62163 21.80384,-15.6324 31.8293,-4.55433 8.01182,8.85295 8.16442,13.94408 0.60593,20.21704 -10.94541,9.08391 -7.04317,18.35852 8.79639,20.9067 31.66283,5.09373 43.5401,27.78897 20.71903,39.5902 -6.34391,3.28056 -14.86761,5.96465 -18.94159,5.96465 -4.07398,0 -10.53424,3.45535 -14.35617,7.67852 -3.82193,4.22318 -14.65025,10.61964 -24.06295,14.21439 -9.41269,3.59475 -17.114,8.92476 -17.114,11.84449 0,6.04364 27.39434,27.23885 44.97096,34.79441 9.27231,3.98584 21.20212,4.16734 56.75305,0.86338 45.01291,-4.18327 45.01291,-4.18327 61.56303,6.26434 12.31494,7.77408 16.5501,12.96759 16.5501,20.29504 0,11.63653 -9.7612,16.62097 -20.01233,10.21903 -4.56787,-2.8527 -26.93864,-4.52651 -60.49713,-4.52651 -53.24901,0 -53.24901,0 -72.88952,-15.63803 -22.44402,-17.87016 -27.47712,-19.27927 -24.43712,-6.8416 1.18249,4.83799 0.51027,17.43787 -1.49384,27.99971 -3.34593,17.63344 -2.14275,34.17234 5.59995,76.97833 3.1993,17.68752 -5.02583,22.24502 -19.54088,10.82747 z M 210.95439,186.62 c 5.51556,-2.09699 10.02826,-6.49519 10.02826,-9.77374 0,-8.22513 -15.4842,-7.60319 -21.9243,0.88061 -9.79608,12.90472 -6.04023,15.71249 11.89604,8.89313 z m -74.94225,-31.37028 c 9.71879,-4.29907 18.69097,-10.47579 19.93818,-13.72603 2.67954,-6.98273 -1.11374,-28.62457 -5.49137,-31.33011 -3.27446,-2.02372 -35.03286,42.32284 -35.03286,48.91893 0,5.21458 0.11326,5.19333 20.58605,-3.86279 z"
       id="path1" /></g></svg>
