<?xml version="1.0" encoding="UTF-8" standalone="no"?>
<!-- Created with Inkscape (http://www.inkscape.org/) -->

<svg
   width="400mm"
   height="400mm"
   viewBox="0 0 400 400"
   version="1.1"
   id="svg1"
   inkscape:version="1.3.2 (091e20e, 2023-11-25, custom)"
   sodipodi:docname="的.svg"
   xml:space="preserve"
   xmlns:inkscape="http://www.inkscape.org/namespaces/inkscape"
   xmlns:sodipodi="http://sodipodi.sourceforge.net/DTD/sodipodi-0.dtd"
   xmlns="http://www.w3.org/2000/svg"
   xmlns:svg="http://www.w3.org/2000/svg"><sodipodi:namedview
     id="namedview1"
     pagecolor="#ffffff"
     bordercolor="#000000"
     borderopacity="0.25"
     inkscape:showpageshadow="2"
     inkscape:pageopacity="0.0"
     inkscape:pagecheckerboard="0"
     inkscape:deskcolor="#d1d1d1"
     inkscape:document-units="mm"
     inkscape:zoom="0.38262135"
     inkscape:cx="473.05253"
     inkscape:cy="667.762"
     inkscape:window-width="1920"
     inkscape:window-height="1017"
     inkscape:window-x="-8"
     inkscape:window-y="-8"
     inkscape:window-maximized="1"
     inkscape:current-layer="layer1" /><defs
     id="defs1" /><g
     inkscape:label="图层 1"
     inkscape:groupmode="layer"
     id="layer1"><path
       style="display:inline;fill:#000000;stroke-width:1.51759"
       d="m 75.199721,301.52033 c -2.23557,-8.29634 -1.416686,-6.30648 -6.615878,-13.46145 -3.029987,-4.16977 -5.423396,-4.60884 -7.232874,-12.67465 -1.105541,-4.928 2.278129,-9.52812 4.880528,-12.76251 0,0 3.14355,-4.92872 5.600199,-12.90656 0.393524,-5.24703 0.768359,-16.48635 -0.706591,-25.28351 -3.486333,-20.79381 3.127545,-20.17325 -0.2226,-27.00165 -2.146372,-4.37482 -3.266192,-8.34098 -17.958645,-5.33225 -13.348424,2.73349 -15.944727,2.66419 -15.944727,2.66419 0,0 -5.346649,-3.88728 -5.161139,-8.4323 1.020308,-6.49286 0.458677,-5.00296 3.33409,-8.89871 0,0 1.13006,-2.29963 8.147968,-5.2183 5.809418,-2.41605 14.183537,-12.16951 19.671118,-20.14543 5.487582,-7.97592 12.797543,-16.33205 15.654727,-19.21342 3.122533,-3.14898 10.512106,-12.35458 16.421276,-21.69581 5.909167,-9.34121 14.887527,-25.550784 19.951927,-36.021262 5.06438,-10.470464 11.4307,-19.890159 14.14735,-20.932641 2.7167,-1.042484 7.98114,1.369442 11.69876,5.359862 3.90253,4.188887 6.75933,11.897121 6.75933,18.238112 0,6.725663 -4.16445,17.248677 -10.74366,27.147799 -5.90902,8.89074 -18.03488,24.2458 -26.94639,34.12233 -8.91151,9.87653 -18.716986,27.70393 -19.458761,32.06385 -1.771951,10.41484 0.612372,19.46599 6.870196,20.02102 l 6.299875,-1.71484 c 7.96373,-2.16776 23.18632,-10.86918 33.57867,-11.61041 38.78992,-2.76673 30.76154,16.79982 40.70216,13.64614 1.93743,-0.61466 7.70916,-4.27803 11.78879,-9.975 4.68078,-6.53646 14.28859,-18.09116 21.54022,-29.20428 7.2516,-11.11313 21.63064,-27.68778 30.60803,-37.88018 6.47538,-7.35173 14.36602,-18.839083 21.90048,-19.363785 5.55339,-0.38674 8.82157,2.704351 12.84881,6.991135 4.02722,4.2868 5.25785,11.09191 6.5192,13.27426 3.04215,5.26342 5.63032,9.19826 11.06174,10.22384 l 18.13091,-7.66446 c 9.972,-4.21545 20.95921,-6.92481 24.41604,-6.02084 3.45682,0.904 9.94046,5.9877 14.40805,11.29714 l 7.31986,10.4566 -0.74259,25.34204 c -0.42194,14.39873 -4.07183,33.77284 -5.23505,43.41651 l -2.0833,17.27141 c 0,0 0.18161,36.14731 3.77879,46.71328 4.43361,13.02282 5.52057,30.41065 5.61322,42.22231 0.0462,5.88844 4.93332,9.88925 6.79192,22.93418 -1.94785,3.06093 -10.80994,0.94209 -10.80994,0.94209 -5.21361,-0.0722 -12.31959,-6.38673 -20.89885,-16.41686 0,0 -10.23921,-6.47435 -13.11462,-15.33249 1.02031,-10.20308 3.9314,-13.21833 3.9314,-13.21833 1.90147,-2.59716 6.49429,-7.409 7.14358,-10.00615 0.60291,-3.80297 0,-67.03927 0,-67.03927 0,-39.21064 0.23021,-66.68587 -3.23379,-69.03788 -5.43392,-3.68957 -12.34335,1.15699 -23.47726,8.22029 -11.68416,7.41238 -24.76954,12.58004 -32.88118,12.58004 -7.31147,0 -16.81918,-3.67509 -24.11615,-8.19603 -7.60819,-7.73938 -7.49814,-9.54164 -18.64807,2.13301 -4.67966,5.11654 -13.54384,14.07891 -16.91099,22.31688 -10.01265,24.49649 -6.5993,21.57319 -7.60058,36.03648 -0.26359,3.80747 -0.5748,9.60162 -1.8727,13.83622 -1.55972,5.08894 -1.44213,8.49136 -2.94658,15.95568 -1.06126,5.26551 0.56397,13.90512 -3.97104,48.05302 -2.68989,10.85237 -9.87059,18.28701 -9.87059,18.28701 -10.32669,9.93689 -11.32603,10.08647 -24.87088,17.12583 -11.06996,5.75315 -13.37684,7.81084 -16.99428,7.34707 -6.03408,-0.13112 -13.15068,-6.88313 -13.15068,-6.88313 -7.27686,-5.90755 -13.70479,-11.21029 -16.30849,-8.48099 -1.47124,1.54223 -2.34103,6.3074 1.24437,12.98927 2.88586,5.3782 4.01398,8.05145 4.01398,8.05145 -0.65587,4.72233 -0.6696,4.8535 -6.96602,6.5588 -7.35573,-1.64726 -8.45534,-0.93902 -33.956841,-28.01926 -3.541746,-4.19762 -5.145586,-12.38721 -5.125828,-17.79451 z m 58.128469,-18.79105 c 6.12799,-8.89233 10.54793,-17.82706 9.82214,-19.85502 -0.72581,-2.02799 -4.91507,-3.26374 -9.3095,-2.74614 -4.39439,0.51761 -13.59739,5.13117 -18.99256,11.60537 -1.70065,2.04079 -6.3312,9.40067 -8.11688,12.6319 -1.10542,2.04079 -2.37568,6.7264 -2.88587,8.59713 -1.52888,5.60588 1.02058,11.58534 2.26797,12.83272 1.24739,1.24739 5.37408,0.20559 9.17046,-2.3151 3.79634,-2.52069 11.91626,-11.85858 18.04424,-20.75086 z M 119.2396,235.90936 c 3.73442,-2.61568 14.33357,-8.29764 24.07333,-11.48335 0,0 9.43612,-3.14689 12.65347,-5.52724 4.60853,-2.67953 4.22342,-4.65467 4.46257,-6.4616 0,0 -0.48898,-5.01444 -2.39471,-6.68912 -3.58216,-2.91388 -7.85006,-2.30195 -9.97587,-2.00434 -6.12331,0.85726 -16.22438,2.59762 -24.60122,6.81039 -8.00811,4.02737 -17.21223,9.65393 -20.45356,12.50348 -3.241342,2.84954 -5.893327,7.97696 -5.893327,11.39428 0,4.22056 2.459829,6.21329 7.669737,6.21329 4.21834,0 10.72516,-2.1401 14.45958,-4.75579 z m 162.30055,-1.47463 c -8.76877,-3.05592 -16.75092,-7.64259 -17.73809,-10.19259 -0.98716,-2.54999 -0.0676,-6.71742 2.04322,-9.26094 2.11093,-2.54351 9.05613,-4.62458 15.43376,-4.62458 6.37761,0 14.90577,1.7048 18.95144,3.78845 4.04564,2.08364 10.74653,6.8763 14.89081,10.65036 l 7.53509,6.8619 -3.73792,4.50391 c -2.05585,2.47715 -7.71977,4.35223 -12.58651,4.16684 -4.86671,-0.1854 -16.02303,-2.8374 -24.7918,-5.89335 z"
       id="path1"
       sodipodi:nodetypes="cssscssscccssssssssssscssssssssscssscsscssccscccssssccsssscsscsssccccsssscsssssscccsssssssssssscsss" /></g></svg>
