<?xml version="1.0" encoding="UTF-8" standalone="no"?>
<!-- Created with Inkscape (http://www.inkscape.org/) -->

<svg
   width="400mm"
   height="400mm"
   viewBox="0 0 400 400"
   version="1.1"
   id="svg1"
   inkscape:version="1.3.2 (091e20e, 2023-11-25, custom)"
   sodipodi:docname="福.svg"
   xml:space="preserve"
   xmlns:inkscape="http://www.inkscape.org/namespaces/inkscape"
   xmlns:sodipodi="http://sodipodi.sourceforge.net/DTD/sodipodi-0.dtd"
   xmlns="http://www.w3.org/2000/svg"
   xmlns:svg="http://www.w3.org/2000/svg"><sodipodi:namedview
     id="namedview1"
     pagecolor="#ffffff"
     bordercolor="#000000"
     borderopacity="0.25"
     inkscape:showpageshadow="2"
     inkscape:pageopacity="0.0"
     inkscape:pagecheckerboard="0"
     inkscape:deskcolor="#d1d1d1"
     inkscape:document-units="mm"
     inkscape:zoom="0.19131068"
     inkscape:cx="909.51537"
     inkscape:cy="734.40752"
     inkscape:window-width="1920"
     inkscape:window-height="1017"
     inkscape:window-x="-8"
     inkscape:window-y="-8"
     inkscape:window-maximized="1"
     inkscape:current-layer="layer1" /><defs
     id="defs1" /><g
     inkscape:label="图层 1"
     inkscape:groupmode="layer"
     id="layer1"><path
       style="fill:#000000;stroke-width:1.41813"
       d="m 146.02236,353.65706 c -1.08889,-6.25635 -4.18574,-18.54835 -6.88191,-27.31558 -2.69616,-8.76723 -5.95554,-28.94985 -7.24306,-44.85027 -2.08505,-25.74959 -1.51368,-30.24843 5.22678,-41.15472 9.4732,-15.32797 9.64118,-27.91684 0.48309,-36.2048 -5.52344,-4.99865 -7.08462,-10.9102 -7.08462,-26.82664 0,-26.71239 1.80931,-30.59342 18.14845,-38.92903 7.5528,-3.85316 13.73237,-8.47625 13.73237,-10.27356 0,-8.03936 -15.62225,-28.372187 -33.96885,-44.211447 -10.999,-9.495861 -22.10991,-22.319177 -24.69088,-28.496264 -2.58096,-6.177085 -7.106002,-13.233955 -10.055642,-15.681926 -5.980661,-4.963508 -12.757913,-2.393964 -12.757913,4.83706 0,6.569875 10.693145,29.137311 22.480025,47.443028 10.23136,15.889879 10.34986,25.352119 0.31747,25.352119 -3.16988,0 -9.994614,2.92739 -15.166047,6.50532 -13.599539,9.40901 -49.85727,18.49452 -69.573821,17.43392 -22.2090459,-1.1947 -24.3995376,5.31375 -5.101835,15.15872 13.049641,6.65741 16.694718,7.09918 29.455862,3.56986 8.009821,-2.21528 17.751392,-3.59453 21.647937,-3.06498 3.896542,0.52953 14.012165,-0.36022 22.47916,-1.97722 19.215584,-3.66971 25.278014,0.81733 17.383294,12.86613 -3.00832,4.59125 -7.874378,17.02691 -10.81343,27.6348 -9.163636,33.07418 -14.843823,45.1411 -32.8513,69.78878 -9.598379,13.13776 -18.020928,25.19631 -18.716774,26.79678 -1.817532,4.18039 13.958519,20.1151 19.914817,20.1151 2.759132,0 13.571934,-7.30905 24.028447,-16.24234 10.456527,-8.93328 20.67358,-15.21536 22.7045,-13.96019 2.03093,1.25517 3.6926,14.20687 3.6926,28.78155 0,31.01285 8.84475,53.19052 22.08191,55.36898 11.74274,1.93252 13.32624,0.15924 11.12937,-12.46318 z m 214.65404,1.0746 c 8.79362,-4.70621 31.62959,-66.91947 37.1369,-101.17407 1.88815,-11.74402 0.83511,-16.22684 -5.82473,-24.79619 -12.44543,-16.01375 -20.99882,-22.02635 -37.2121,-26.15818 -28.56838,-7.28045 -52.54083,-3.70289 -112.67098,16.81457 -31.88082,10.87828 -31.88082,10.87828 -38.98535,2.00297 -5.07747,-6.34304 -8.98621,-8.15325 -13.6996,-6.34455 -5.9209,2.27206 -6.39169,5.46322 -4.60534,31.21625 1.09438,15.77703 3.62692,41.32204 5.62785,56.7667 3.18183,24.55951 5.01164,29.33575 14.59048,38.08467 8.71832,7.96295 12.3116,9.27604 17.61584,6.4373 3.6649,-1.9614 7.64333,-5.15165 8.84096,-7.08944 1.19761,-1.93781 7.94797,-3.52327 15.00078,-3.52327 7.05282,0 23.29766,-3.09315 36.09964,-6.87369 12.80201,-3.78051 30.1353,-8.65187 38.51845,-10.82522 18.70153,-4.84843 22.68509,-12.78018 11.12134,-22.14395 -6.36698,-5.15566 -11.688,-6.34396 -21.43099,-4.786 -8.77617,1.40337 -14.25805,0.50975 -16.97806,-2.76764 -10.06865,-12.132 8.61324,-23.44976 38.70782,-23.44976 22.68541,0 28.61924,-7.03103 16.3166,-19.33367 -6.63305,-6.63308 -12.72415,-9.00483 -23.12601,-9.00483 -7.76667,0 -15.10638,1.59406 -16.31047,3.54232 -3.92737,6.35461 -15.94041,4.01191 -15.94041,-3.10858 0,-12.17305 9.14374,-15.54207 41.53323,-15.30296 25.15688,0.18574 31.67213,1.37407 35.3869,6.45432 15.19374,20.77869 -12.64068,95.90337 -40.18265,108.45234 -11.0957,5.05553 -9.30096,9.63863 5.92743,15.13657 16.06409,5.79965 16.90666,5.86055 24.54247,1.77399 z M 222.62276,305.77161 c 0,-15.97061 35.41846,-29.10781 38.26035,-14.1913 1.35551,7.11481 -11.18915,16.06326 -26.933,19.21203 -9.80453,1.96091 -11.32735,1.28593 -11.32735,-5.02073 z m -13.54341,-42.30617 c 1.35354,-7.32603 29.5252,-22.14022 44.08326,-23.18137 16.97323,-1.21388 12.11134,8.96066 -9.28597,19.43287 -23.29877,11.40284 -36.47369,12.82208 -34.79729,3.7485 z m 34.79729,-66.55938 c 27.04768,-7.55711 53.13469,-23.33241 53.13469,-32.13151 0,-2.53393 3.98511,-10.47952 8.85578,-17.65687 11.11169,-16.37398 11.1275,-22.86122 0.081,-33.23885 -10.5717,-9.93161 -19.43268,-10.01734 -57.4482,-0.55581 -15.727,3.91423 -31.6811,6.30964 -35.45352,5.32313 -15.08207,-3.94406 -17.40377,8.65223 -9.6961,52.60578 2.78277,15.86893 16.8035,32.27083 25.51177,29.84446 3.38732,-0.94381 10.14389,-2.82945 15.01458,-4.19033 z M 224.9843,161.03355 c -8.18643,-8.18643 9.32462,-22.43464 27.57222,-22.43464 12.2374,0 11.35249,4.95391 -2.81519,15.76013 -11.73656,8.95191 -20.19833,11.23322 -24.75703,6.67451 z m 40.14621,-69.872045 c 33.67626,-9.105706 39.2814,-15.655703 21.14138,-24.705152 -10.52576,-5.250934 -12.76175,-5.004009 -41.6956,4.60465 -31.91809,10.599705 -37.9351,15.896359 -27.07738,23.835717 8.46086,6.1867 11.94781,5.91326 47.6316,-3.735215 z"
       id="path1"
       sodipodi:nodetypes="sssssssssssssssssssssssssssssssssssssssssssssssssssssssssssssssssssssssssssssssssssss" /></g></svg>
